<svg width="137" height="22" viewBox="0 0 137 22" fill="none" xmlns="http://www.w3.org/2000/svg">
<g clip-path="url(#clip0_606_29)">
<path d="M17.4044 8.25H13.7403V2.75H8.24418V8.25H4.58008L10.9923 14.6667L17.4044 8.25ZM4.58008 16.5V18.3333H17.4044V16.5H4.58008Z" fill="#3F4F4F"/>
</g>
<path d="M30.0102 15C29.7022 15 29.4642 14.9207 29.2962 14.762C29.1376 14.594 29.0582 14.356 29.0582 14.048V6.082C29.0582 5.774 29.1376 5.54067 29.2962 5.382C29.4642 5.214 29.7022 5.13 30.0102 5.13H32.7262C34.3782 5.13 35.6522 5.55467 36.5482 6.404C37.4536 7.25333 37.9062 8.47133 37.9062 10.058C37.9062 10.8513 37.7896 11.556 37.5562 12.172C37.3322 12.7787 36.9962 13.292 36.5482 13.712C36.1096 14.132 35.5682 14.454 34.9242 14.678C34.2896 14.8927 33.5569 15 32.7262 15H30.0102ZM30.8502 13.516H32.6142C33.1929 13.516 33.6922 13.446 34.1122 13.306C34.5416 13.1567 34.8962 12.942 35.1762 12.662C35.4656 12.3727 35.6802 12.0133 35.8202 11.584C35.9602 11.1453 36.0302 10.6367 36.0302 10.058C36.0302 8.90067 35.7456 8.03733 35.1762 7.468C34.6069 6.89867 33.7529 6.614 32.6142 6.614H30.8502V13.516ZM42.6763 15.14C41.967 15.14 41.351 14.9953 40.8283 14.706C40.3056 14.4167 39.8996 14.006 39.6103 13.474C39.321 12.9327 39.1763 12.298 39.1763 11.57C39.1763 11.0193 39.2556 10.5293 39.4143 10.1C39.5823 9.66133 39.8203 9.288 40.1283 8.98C40.4363 8.66267 40.805 8.42467 41.2343 8.266C41.6636 8.098 42.1443 8.014 42.6763 8.014C43.3856 8.014 44.0016 8.15867 44.5243 8.448C45.047 8.73733 45.453 9.148 45.7423 9.68C46.0316 10.212 46.1763 10.842 46.1763 11.57C46.1763 12.1207 46.0923 12.6153 45.9243 13.054C45.7656 13.4927 45.5323 13.8707 45.2243 14.188C44.9163 14.496 44.5476 14.734 44.1183 14.902C43.689 15.0607 43.2083 15.14 42.6763 15.14ZM42.6763 13.81C43.0216 13.81 43.325 13.726 43.5863 13.558C43.8476 13.39 44.0483 13.1427 44.1883 12.816C44.3376 12.48 44.4123 12.0647 44.4123 11.57C44.4123 10.8233 44.2536 10.268 43.9363 9.904C43.619 9.53067 43.199 9.344 42.6763 9.344C42.331 9.344 42.0276 9.428 41.7663 9.596C41.505 9.75467 41.2996 10.002 41.1503 10.338C41.0103 10.6647 40.9403 11.0753 40.9403 11.57C40.9403 12.3073 41.099 12.8673 41.4163 13.25C41.7336 13.6233 42.1536 13.81 42.6763 13.81ZM50.13 15.112C49.8966 15.112 49.696 15.056 49.528 14.944C49.36 14.8227 49.2246 14.636 49.122 14.384L47.092 9.204C47.008 8.98 46.98 8.784 47.008 8.616C47.0453 8.43867 47.134 8.29867 47.274 8.196C47.414 8.09333 47.6006 8.042 47.834 8.042C48.0393 8.042 48.2073 8.09333 48.338 8.196C48.4686 8.28933 48.5806 8.47133 48.674 8.742L50.368 13.404H50.046L51.796 8.63C51.8706 8.42467 51.9686 8.27533 52.09 8.182C52.2206 8.08867 52.3886 8.042 52.594 8.042C52.7993 8.042 52.9673 8.09333 53.098 8.196C53.2286 8.28933 53.3266 8.434 53.392 8.63L55.114 13.404H54.82L56.528 8.7C56.6213 8.448 56.738 8.27533 56.878 8.182C57.0273 8.08867 57.1906 8.042 57.368 8.042C57.592 8.042 57.7646 8.098 57.886 8.21C58.0073 8.322 58.0773 8.46667 58.096 8.644C58.1146 8.812 58.082 8.99867 57.998 9.204L55.982 14.384C55.8886 14.6267 55.7533 14.8087 55.576 14.93C55.408 15.0513 55.2073 15.112 54.974 15.112C54.7406 15.112 54.5353 15.0513 54.358 14.93C54.19 14.8087 54.0593 14.6267 53.966 14.384L52.132 9.526H52.93L51.138 14.37C51.0446 14.622 50.914 14.8087 50.746 14.93C50.578 15.0513 50.3726 15.112 50.13 15.112ZM60.2875 15.112C60.0075 15.112 59.7929 15.0373 59.6435 14.888C59.4942 14.7293 59.4195 14.5053 59.4195 14.216V8.924C59.4195 8.63467 59.4942 8.41533 59.6435 8.266C59.7929 8.11667 60.0029 8.042 60.2735 8.042C60.5442 8.042 60.7542 8.11667 60.9035 8.266C61.0529 8.41533 61.1275 8.63467 61.1275 8.924V9.876L60.9735 9.526C61.1789 9.03133 61.4962 8.658 61.9255 8.406C62.3642 8.14467 62.8589 8.014 63.4095 8.014C63.9602 8.014 64.4129 8.11667 64.7675 8.322C65.1222 8.52733 65.3882 8.84 65.5655 9.26C65.7429 9.67067 65.8315 10.1933 65.8315 10.828V14.216C65.8315 14.5053 65.7569 14.7293 65.6075 14.888C65.4582 15.0373 65.2435 15.112 64.9635 15.112C64.6835 15.112 64.4642 15.0373 64.3055 14.888C64.1562 14.7293 64.0815 14.5053 64.0815 14.216V10.912C64.0815 10.38 63.9789 9.99267 63.7735 9.75C63.5775 9.50733 63.2695 9.386 62.8495 9.386C62.3362 9.386 61.9255 9.54933 61.6175 9.876C61.3189 10.1933 61.1695 10.618 61.1695 11.15V14.216C61.1695 14.8133 60.8755 15.112 60.2875 15.112ZM69.947 15.14C69.1723 15.14 68.589 14.9207 68.197 14.482C67.805 14.034 67.609 13.3807 67.609 12.522V5.9C67.609 5.61067 67.6836 5.39133 67.833 5.242C67.9823 5.09267 68.197 5.018 68.477 5.018C68.757 5.018 68.9716 5.09267 69.121 5.242C69.2796 5.39133 69.359 5.61067 69.359 5.9V12.438C69.359 12.8673 69.4476 13.1847 69.625 13.39C69.8116 13.5953 70.073 13.698 70.409 13.698C70.4836 13.698 70.5536 13.698 70.619 13.698C70.6843 13.6887 70.7496 13.6793 70.815 13.67C70.9456 13.6513 71.0343 13.6887 71.081 13.782C71.1276 13.866 71.151 14.0433 71.151 14.314C71.151 14.5473 71.1043 14.7293 71.011 14.86C70.9176 14.9907 70.7636 15.07 70.549 15.098C70.4556 15.1073 70.3576 15.1167 70.255 15.126C70.1523 15.1353 70.0496 15.14 69.947 15.14ZM75.1333 15.14C74.424 15.14 73.808 14.9953 73.2853 14.706C72.7627 14.4167 72.3567 14.006 72.0673 13.474C71.778 12.9327 71.6333 12.298 71.6333 11.57C71.6333 11.0193 71.7127 10.5293 71.8713 10.1C72.0393 9.66133 72.2773 9.288 72.5853 8.98C72.8933 8.66267 73.262 8.42467 73.6913 8.266C74.1207 8.098 74.6013 8.014 75.1333 8.014C75.8427 8.014 76.4587 8.15867 76.9813 8.448C77.504 8.73733 77.91 9.148 78.1993 9.68C78.4887 10.212 78.6333 10.842 78.6333 11.57C78.6333 12.1207 78.5493 12.6153 78.3813 13.054C78.2227 13.4927 77.9893 13.8707 77.6813 14.188C77.3733 14.496 77.0047 14.734 76.5753 14.902C76.146 15.0607 75.6653 15.14 75.1333 15.14ZM75.1333 13.81C75.4787 13.81 75.782 13.726 76.0433 13.558C76.3047 13.39 76.5053 13.1427 76.6453 12.816C76.7947 12.48 76.8693 12.0647 76.8693 11.57C76.8693 10.8233 76.7107 10.268 76.3933 9.904C76.076 9.53067 75.656 9.344 75.1333 9.344C74.788 9.344 74.4847 9.428 74.2233 9.596C73.962 9.75467 73.7567 10.002 73.6073 10.338C73.4673 10.6647 73.3973 11.0753 73.3973 11.57C73.3973 12.3073 73.556 12.8673 73.8733 13.25C74.1907 13.6233 74.6107 13.81 75.1333 13.81ZM82.3317 15.14C81.8371 15.14 81.3937 15.0467 81.0017 14.86C80.6191 14.664 80.3157 14.4027 80.0917 14.076C79.8771 13.7493 79.7697 13.3807 79.7697 12.97C79.7697 12.466 79.9004 12.0693 80.1617 11.78C80.4231 11.4813 80.8477 11.2667 81.4357 11.136C82.0237 11.0053 82.8124 10.94 83.8017 10.94H84.5017V11.948H83.8157C83.2371 11.948 82.7751 11.976 82.4297 12.032C82.0844 12.088 81.8371 12.186 81.6877 12.326C81.5477 12.4567 81.4777 12.6433 81.4777 12.886C81.4777 13.194 81.5851 13.446 81.7997 13.642C82.0144 13.838 82.3131 13.936 82.6957 13.936C83.0037 13.936 83.2744 13.866 83.5077 13.726C83.7504 13.5767 83.9417 13.376 84.0817 13.124C84.2217 12.872 84.2917 12.5827 84.2917 12.256V10.646C84.2917 10.1793 84.1891 9.84333 83.9837 9.638C83.7784 9.43267 83.4331 9.33 82.9477 9.33C82.6771 9.33 82.3831 9.36267 82.0657 9.428C81.7577 9.49333 81.4311 9.60533 81.0857 9.764C80.9084 9.848 80.7497 9.87133 80.6097 9.834C80.4791 9.79667 80.3764 9.722 80.3017 9.61C80.2271 9.48867 80.1897 9.358 80.1897 9.218C80.1897 9.078 80.2271 8.94267 80.3017 8.812C80.3764 8.672 80.5024 8.56933 80.6797 8.504C81.1091 8.32667 81.5197 8.20067 81.9117 8.126C82.3131 8.05133 82.6771 8.014 83.0037 8.014C83.6757 8.014 84.2264 8.11667 84.6557 8.322C85.0944 8.52733 85.4211 8.84 85.6357 9.26C85.8504 9.67067 85.9577 10.2027 85.9577 10.856V14.216C85.9577 14.5053 85.8877 14.7293 85.7477 14.888C85.6077 15.0373 85.4071 15.112 85.1457 15.112C84.8844 15.112 84.6791 15.0373 84.5297 14.888C84.3897 14.7293 84.3197 14.5053 84.3197 14.216V13.544H84.4317C84.3664 13.8707 84.2357 14.1553 84.0397 14.398C83.8531 14.6313 83.6151 14.8133 83.3257 14.944C83.0364 15.0747 82.7051 15.14 82.3317 15.14ZM90.366 15.14C89.7686 15.14 89.2413 14.9953 88.784 14.706C88.336 14.4167 87.986 14.006 87.734 13.474C87.482 12.9327 87.356 12.298 87.356 11.57C87.356 10.8327 87.482 10.2027 87.734 9.68C87.986 9.148 88.336 8.73733 88.784 8.448C89.2413 8.15867 89.7686 8.014 90.366 8.014C90.9353 8.014 91.43 8.154 91.85 8.434C92.2793 8.714 92.5686 9.08267 92.718 9.54H92.564V5.9C92.564 5.61067 92.6386 5.39133 92.788 5.242C92.9373 5.09267 93.152 5.018 93.432 5.018C93.712 5.018 93.9266 5.09267 94.076 5.242C94.2346 5.39133 94.314 5.61067 94.314 5.9V14.216C94.314 14.5053 94.2393 14.7293 94.09 14.888C93.9406 15.0373 93.726 15.112 93.446 15.112C93.166 15.112 92.9513 15.0373 92.802 14.888C92.6526 14.7293 92.578 14.5053 92.578 14.216V13.124L92.732 13.544C92.592 14.0293 92.3073 14.4167 91.878 14.706C91.4486 14.9953 90.9446 15.14 90.366 15.14ZM90.856 13.81C91.2013 13.81 91.5046 13.726 91.766 13.558C92.0273 13.39 92.228 13.1427 92.368 12.816C92.5173 12.48 92.592 12.0647 92.592 11.57C92.592 10.8233 92.4333 10.268 92.116 9.904C91.7986 9.53067 91.3786 9.344 90.856 9.344C90.5106 9.344 90.2073 9.428 89.946 9.596C89.6846 9.75467 89.4793 10.002 89.33 10.338C89.19 10.6647 89.12 11.0753 89.12 11.57C89.12 12.3073 89.2786 12.8673 89.596 13.25C89.9133 13.6233 90.3333 13.81 90.856 13.81ZM104.689 15.14C103.663 15.14 102.781 14.9347 102.043 14.524C101.315 14.104 100.755 13.516 100.363 12.76C99.9713 11.9947 99.7753 11.094 99.7753 10.058C99.7753 9.28333 99.8873 8.588 100.111 7.972C100.335 7.34667 100.657 6.81467 101.077 6.376C101.497 5.928 102.011 5.58733 102.617 5.354C103.233 5.11133 103.924 4.99 104.689 4.99C105.203 4.99 105.707 5.05533 106.201 5.186C106.696 5.31667 107.13 5.50333 107.503 5.746C107.699 5.86733 107.83 6.01667 107.895 6.194C107.961 6.362 107.975 6.53 107.937 6.698C107.9 6.85667 107.821 6.992 107.699 7.104C107.587 7.216 107.443 7.28133 107.265 7.3C107.097 7.30933 106.911 7.24867 106.705 7.118C106.416 6.93133 106.103 6.796 105.767 6.712C105.431 6.628 105.091 6.586 104.745 6.586C104.083 6.586 103.523 6.72133 103.065 6.992C102.608 7.26267 102.263 7.65467 102.029 8.168C101.796 8.68133 101.679 9.31133 101.679 10.058C101.679 10.7953 101.796 11.4253 102.029 11.948C102.263 12.4707 102.608 12.8673 103.065 13.138C103.523 13.4087 104.083 13.544 104.745 13.544C105.1 13.544 105.45 13.502 105.795 13.418C106.141 13.3247 106.467 13.1847 106.775 12.998C106.981 12.8767 107.163 12.8253 107.321 12.844C107.489 12.8533 107.629 12.9093 107.741 13.012C107.853 13.1147 107.928 13.2453 107.965 13.404C108.003 13.5533 107.993 13.712 107.937 13.88C107.881 14.0387 107.769 14.1787 107.601 14.3C107.228 14.5707 106.78 14.7807 106.257 14.93C105.744 15.07 105.221 15.14 104.689 15.14ZM113.287 15.112C113.035 15.112 112.825 15.056 112.657 14.944C112.498 14.8227 112.367 14.6453 112.265 14.412L108.611 6.208C108.508 5.97467 108.48 5.76933 108.527 5.592C108.573 5.41467 108.671 5.27467 108.821 5.172C108.97 5.06933 109.147 5.018 109.353 5.018C109.623 5.018 109.824 5.07867 109.955 5.2C110.095 5.312 110.211 5.48467 110.305 5.718L113.623 13.404H113.021L116.325 5.704C116.427 5.48 116.549 5.312 116.689 5.2C116.829 5.07867 117.025 5.018 117.277 5.018C117.482 5.018 117.65 5.06933 117.781 5.172C117.921 5.27467 118.009 5.41467 118.047 5.592C118.084 5.76933 118.051 5.97467 117.949 6.208L114.295 14.412C114.192 14.6453 114.061 14.8227 113.903 14.944C113.753 15.056 113.548 15.112 113.287 15.112Z" fill="#3F4F4F"/>
<defs>
<clipPath id="clip0_606_29">
<rect width="21.9846" height="22" fill="white"/>
</clipPath>
</defs>
</svg>
