<svg width="152" height="66" viewBox="0 0 152 66" fill="none" xmlns="http://www.w3.org/2000/svg">
<rect width="151.196" height="66" rx="10" fill="#3F4F4F"/>
<path d="M66.4347 39C66.0827 39 65.8107 38.9093 65.6187 38.728C65.4374 38.536 65.3467 38.264 65.3467 37.912V28.808C65.3467 28.456 65.4374 28.1893 65.6187 28.008C65.8107 27.816 66.0827 27.72 66.4347 27.72H72.1467C72.4134 27.72 72.6161 27.7893 72.7547 27.928C72.9041 28.0667 72.9787 28.264 72.9787 28.52C72.9787 28.7867 72.9041 28.9947 72.7547 29.144C72.6161 29.2827 72.4134 29.352 72.1467 29.352H67.3147V32.456H71.7947C72.0721 32.456 72.2801 32.5253 72.4187 32.664C72.5574 32.8027 72.6267 33.0053 72.6267 33.272C72.6267 33.5387 72.5574 33.7413 72.4187 33.88C72.2801 34.0187 72.0721 34.088 71.7947 34.088H67.3147V37.368H72.1467C72.4134 37.368 72.6161 37.4373 72.7547 37.576C72.9041 37.7147 72.9787 37.9173 72.9787 38.184C72.9787 38.4507 72.9041 38.6533 72.7547 38.792C72.6161 38.9307 72.4134 39 72.1467 39H66.4347ZM75.7256 39.128C75.4056 39.128 75.1603 39.0427 74.9896 38.872C74.819 38.6907 74.7336 38.4347 74.7336 38.104V32.056C74.7336 31.7253 74.819 31.4747 74.9896 31.304C75.1603 31.1333 75.4003 31.048 75.7096 31.048C76.019 31.048 76.259 31.1333 76.4296 31.304C76.6003 31.4747 76.6856 31.7253 76.6856 32.056V33.224L76.5096 32.744C76.723 32.2107 77.0536 31.7893 77.5016 31.48C77.9496 31.1707 78.483 31.016 79.1016 31.016C79.731 31.016 80.2483 31.1653 80.6536 31.464C81.059 31.7627 81.3416 32.2213 81.5016 32.84H81.2776C81.491 32.2747 81.843 31.832 82.3336 31.512C82.8243 31.1813 83.3896 31.016 84.0296 31.016C84.627 31.016 85.1176 31.1333 85.5016 31.368C85.8963 31.6027 86.1896 31.96 86.3816 32.44C86.5736 32.9093 86.6696 33.5067 86.6696 34.232V38.104C86.6696 38.4347 86.579 38.6907 86.3976 38.872C86.227 39.0427 85.9816 39.128 85.6616 39.128C85.3416 39.128 85.0963 39.0427 84.9256 38.872C84.755 38.6907 84.6696 38.4347 84.6696 38.104V34.312C84.6696 33.7147 84.5683 33.2773 84.3656 33C84.1736 32.7227 83.843 32.584 83.3736 32.584C82.851 32.584 82.4403 32.7707 82.1416 33.144C81.843 33.5067 81.6936 34.0133 81.6936 34.664V38.104C81.6936 38.4347 81.6083 38.6907 81.4376 38.872C81.267 39.0427 81.0216 39.128 80.7016 39.128C80.3816 39.128 80.131 39.0427 79.9496 38.872C79.779 38.6907 79.6936 38.4347 79.6936 38.104V34.312C79.6936 33.7147 79.5923 33.2773 79.3896 33C79.1976 32.7227 78.8723 32.584 78.4136 32.584C77.891 32.584 77.4803 32.7707 77.1816 33.144C76.883 33.5067 76.7336 34.0133 76.7336 34.664V38.104C76.7336 38.7867 76.3976 39.128 75.7256 39.128ZM91.3089 39.16C90.7435 39.16 90.2369 39.0533 89.7889 38.84C89.3515 38.616 89.0049 38.3173 88.7489 37.944C88.5035 37.5707 88.3809 37.1493 88.3809 36.68C88.3809 36.104 88.5302 35.6507 88.8289 35.32C89.1275 34.9787 89.6129 34.7333 90.2849 34.584C90.9569 34.4347 91.8582 34.36 92.9889 34.36H93.7889V35.512H93.0049C92.3435 35.512 91.8155 35.544 91.4209 35.608C91.0262 35.672 90.7435 35.784 90.5729 35.944C90.4129 36.0933 90.3329 36.3067 90.3329 36.584C90.3329 36.936 90.4555 37.224 90.7009 37.448C90.9462 37.672 91.2875 37.784 91.7249 37.784C92.0769 37.784 92.3862 37.704 92.6529 37.544C92.9302 37.3733 93.1489 37.144 93.3089 36.856C93.4689 36.568 93.5489 36.2373 93.5489 35.864V34.024C93.5489 33.4907 93.4315 33.1067 93.1969 32.872C92.9622 32.6373 92.5675 32.52 92.0129 32.52C91.7035 32.52 91.3675 32.5573 91.0049 32.632C90.6529 32.7067 90.2795 32.8347 89.8849 33.016C89.6822 33.112 89.5009 33.1387 89.3409 33.096C89.1915 33.0533 89.0742 32.968 88.9889 32.84C88.9035 32.7013 88.8609 32.552 88.8609 32.392C88.8609 32.232 88.9035 32.0773 88.9889 31.928C89.0742 31.768 89.2182 31.6507 89.4209 31.576C89.9115 31.3733 90.3809 31.2293 90.8289 31.144C91.2875 31.0587 91.7035 31.016 92.0769 31.016C92.8449 31.016 93.4742 31.1333 93.9649 31.368C94.4662 31.6027 94.8395 31.96 95.0849 32.44C95.3302 32.9093 95.4529 33.5173 95.4529 34.264V38.104C95.4529 38.4347 95.3729 38.6907 95.2129 38.872C95.0529 39.0427 94.8235 39.128 94.5249 39.128C94.2262 39.128 93.9915 39.0427 93.8209 38.872C93.6609 38.6907 93.5809 38.4347 93.5809 38.104V37.336H93.7089C93.6342 37.7093 93.4849 38.0347 93.2609 38.312C93.0475 38.5787 92.7755 38.7867 92.4449 38.936C92.1142 39.0853 91.7355 39.16 91.3089 39.16ZM98.4749 39.112C98.1549 39.112 97.9095 39.016 97.7389 38.824C97.5682 38.632 97.4829 38.3653 97.4829 38.024V32.152C97.4829 31.8 97.5682 31.5333 97.7389 31.352C97.9095 31.16 98.1549 31.064 98.4749 31.064C98.7949 31.064 99.0402 31.16 99.2109 31.352C99.3922 31.5333 99.4829 31.8 99.4829 32.152V38.024C99.4829 38.3653 99.3975 38.632 99.2269 38.824C99.0562 39.016 98.8055 39.112 98.4749 39.112ZM98.4749 29.576C98.1015 29.576 97.8082 29.4853 97.5949 29.304C97.3922 29.112 97.2909 28.8507 97.2909 28.52C97.2909 28.1787 97.3922 27.9173 97.5949 27.736C97.8082 27.5547 98.1015 27.464 98.4749 27.464C98.8589 27.464 99.1522 27.5547 99.3549 27.736C99.5575 27.9173 99.6589 28.1787 99.6589 28.52C99.6589 28.8507 99.5575 29.112 99.3549 29.304C99.1522 29.4853 98.8589 29.576 98.4749 29.576ZM104.233 39.16C103.348 39.16 102.681 38.9093 102.233 38.408C101.785 37.896 101.561 37.1493 101.561 36.168V28.6C101.561 28.2693 101.646 28.0187 101.817 27.848C101.988 27.6773 102.233 27.592 102.553 27.592C102.873 27.592 103.118 27.6773 103.289 27.848C103.47 28.0187 103.561 28.2693 103.561 28.6V36.072C103.561 36.5627 103.662 36.9253 103.865 37.16C104.078 37.3947 104.377 37.512 104.761 37.512C104.846 37.512 104.926 37.512 105.001 37.512C105.076 37.5013 105.15 37.4907 105.225 37.48C105.374 37.4587 105.476 37.5013 105.529 37.608C105.582 37.704 105.609 37.9067 105.609 38.216C105.609 38.4827 105.556 38.6907 105.449 38.84C105.342 38.9893 105.166 39.08 104.921 39.112C104.814 39.1227 104.702 39.1333 104.585 39.144C104.468 39.1547 104.35 39.16 104.233 39.16ZM112.166 39.128C111.867 39.128 111.638 39.0427 111.478 38.872C111.318 38.7013 111.238 38.4667 111.238 38.168V28.552C111.238 28.2427 111.323 28.008 111.494 27.848C111.665 27.6773 111.899 27.592 112.198 27.592C112.465 27.592 112.673 27.6453 112.822 27.752C112.982 27.848 113.126 28.0187 113.254 28.264L117.206 35.576H116.694L120.646 28.264C120.774 28.0187 120.913 27.848 121.062 27.752C121.211 27.6453 121.419 27.592 121.686 27.592C121.985 27.592 122.214 27.6773 122.374 27.848C122.534 28.008 122.614 28.2427 122.614 28.552V38.168C122.614 38.4667 122.534 38.7013 122.374 38.872C122.225 39.0427 121.995 39.128 121.686 39.128C121.387 39.128 121.158 39.0427 120.998 38.872C120.838 38.7013 120.758 38.4667 120.758 38.168V30.76H121.11L117.75 36.888C117.643 37.0693 117.531 37.2027 117.414 37.288C117.297 37.3733 117.137 37.416 116.934 37.416C116.731 37.416 116.566 37.3733 116.438 37.288C116.31 37.192 116.198 37.0587 116.102 36.888L112.71 30.744H113.094V38.168C113.094 38.4667 113.014 38.7013 112.854 38.872C112.705 39.0427 112.475 39.128 112.166 39.128ZM128.761 39.16C127.875 39.16 127.113 38.9947 126.473 38.664C125.833 38.3333 125.337 37.864 124.985 37.256C124.643 36.648 124.473 35.928 124.473 35.096C124.473 34.2853 124.638 33.576 124.969 32.968C125.31 32.36 125.774 31.8853 126.361 31.544C126.958 31.192 127.635 31.016 128.393 31.016C128.947 31.016 129.443 31.1067 129.881 31.288C130.329 31.4693 130.707 31.7307 131.017 32.072C131.337 32.4133 131.577 32.8293 131.737 33.32C131.907 33.8 131.993 34.344 131.993 34.952C131.993 35.144 131.923 35.2933 131.785 35.4C131.657 35.496 131.47 35.544 131.225 35.544H126.089V34.392H130.585L130.329 34.632C130.329 34.1413 130.254 33.7307 130.105 33.4C129.966 33.0693 129.758 32.8187 129.481 32.648C129.214 32.4667 128.878 32.376 128.473 32.376C128.025 32.376 127.641 32.4827 127.321 32.696C127.011 32.8987 126.771 33.192 126.601 33.576C126.441 33.9493 126.361 34.3973 126.361 34.92V35.032C126.361 35.9067 126.563 36.5627 126.969 37C127.385 37.4267 127.993 37.64 128.793 37.64C129.07 37.64 129.379 37.608 129.721 37.544C130.073 37.4693 130.403 37.3467 130.713 37.176C130.937 37.048 131.134 36.9947 131.305 37.016C131.475 37.0267 131.609 37.0853 131.705 37.192C131.811 37.2987 131.875 37.432 131.897 37.592C131.918 37.7413 131.886 37.896 131.801 38.056C131.726 38.216 131.593 38.3547 131.401 38.472C131.027 38.7067 130.595 38.8827 130.105 39C129.625 39.1067 129.177 39.16 128.761 39.16Z" fill="#DED6C9"/>
<g clip-path="url(#clip0_606_25)">
<path d="M51.5947 23.25C51.5947 21.5542 50.2669 20.1667 48.6441 20.1667H25.0397C23.4169 20.1667 22.0891 21.5542 22.0891 23.25V41.75C22.0891 43.4458 23.4169 44.8333 25.0397 44.8333H48.6441C50.2669 44.8333 51.5947 43.4458 51.5947 41.75V23.25ZM48.6441 23.25L36.8419 30.9429L25.0397 23.25H48.6441ZM48.6441 41.75H25.0397V26.3333L36.8419 34.0417L48.6441 26.3333V41.75Z" fill="#DED6C9"/>
</g>
<defs>
<clipPath id="clip0_606_25">
<rect x="19.1387" y="14" width="35.4067" height="37" rx="10" fill="white"/>
</clipPath>
</defs>
</svg>
