<svg width="64" height="66" viewBox="0 0 64 66" fill="none" xmlns="http://www.w3.org/2000/svg">
<path fill-rule="evenodd" clip-rule="evenodd" d="M0.243896 10C0.243896 4.47715 4.72105 0 10.2439 0H53.4018C58.9247 0 63.4018 4.47715 63.4018 10V56C63.4018 61.5228 58.9246 66 53.4018 66H10.2439C4.72104 66 0.243896 61.5228 0.243896 56V10ZM16.0334 33.3455C16.0334 24.263 23.0831 16.896 31.7745 16.896C40.466 16.896 47.5157 24.263 47.6123 33.3455C47.6123 40.2269 43.6279 46.1125 37.8741 48.6024C37.2309 48.8807 36.3382 49.2282 35.9614 48.6373C35.8708 48.4954 35.8306 48.3309 35.8306 48.1804V43.6391V43.6391C35.8306 42.3721 36.8019 40.3383 37.9671 39.8405C40.1805 38.8948 41.9146 36.9087 41.9146 32.5382C41.9146 30.7722 41.2756 29.2923 40.3527 28.1913C40.3032 28.1322 40.2839 28.0534 40.3038 27.9788V27.9788C40.3862 27.6681 40.5559 27.028 40.5513 26.1679C40.543 24.6097 40.4644 23.4648 38.952 23.84V23.84C37.534 24.1918 34.9238 25.234 33.4722 25.0689C32.9111 25.0051 32.3428 24.9694 31.7745 24.9694C31.2417 24.9694 30.7088 24.9851 30.1818 25.0288C28.6677 25.1544 25.976 24.1477 24.4934 23.8155V23.8155C23.0432 23.4906 23.0326 24.5682 22.9993 26.054C22.9767 27.0631 23.2031 27.7688 23.2706 27.9792V27.9792C23.2741 27.9902 23.2716 28.0023 23.264 28.0109C22.2094 29.2188 21.6345 30.6278 21.6345 32.4373C21.6345 37.6437 24.0954 39.534 26.896 40.2696C27.6577 40.4697 28.1321 41.3851 27.9324 42.1469V42.1469C27.8458 42.4771 27.6268 42.9278 27.3026 43.0344C26.2728 43.3729 24.5534 43.5325 23.3395 41.5263C23.2971 41.4562 23.2571 41.3828 23.2138 41.3133C23.0083 40.9835 22.3025 39.9813 21.1851 39.7475C20.9724 39.703 20.7512 39.6943 20.5379 39.736C20.3078 39.7811 20.0588 39.8882 20.1754 40.1428C20.4045 40.6433 21.0285 40.8288 21.4052 41.23C21.7368 41.5832 22.139 42.1492 22.4627 43.0214C22.4904 43.0961 22.5142 43.1711 22.5432 43.2453C22.6963 43.6363 23.327 44.9527 25.0157 45.3999C26.4123 45.7698 27.8151 46.7356 27.8151 48.1804V48.1804C27.8151 48.3235 27.7787 48.4792 27.6973 48.6162C27.331 49.2328 26.4073 48.8768 25.7511 48.5873C20.0879 46.0889 16.0334 40.213 16.0334 33.3455Z" fill="#3F4F4F"/>
</svg>
