<svg width="64" height="66" viewBox="0 0 64 66" fill="none" xmlns="http://www.w3.org/2000/svg">
<path d="M32.421 38.775C29.4605 38.775 26.8947 36.3 26.8947 33C26.8947 29.9062 29.2631 27.225 32.421 27.225C35.3815 27.225 37.9473 29.7 37.9473 33C37.9473 36.0937 35.3815 38.775 32.421 38.775Z" fill="#3F4F4F"/>
<path fill-rule="evenodd" clip-rule="evenodd" d="M39.1315 18.975H25.7105C24.1315 19.1812 23.342 19.3875 22.7499 19.5937C21.9605 19.8 21.3684 20.2125 20.7763 20.8312C20.3077 21.3209 20.0864 21.8105 19.8188 22.4023C19.7483 22.5582 19.6744 22.7217 19.592 22.8937C19.5615 22.9895 19.5263 23.0901 19.4885 23.198C19.282 23.7875 18.9999 24.5927 18.9999 25.9875V40.0125C19.1973 41.6625 19.3947 42.4875 19.592 43.1062C19.7894 43.9312 20.1841 44.55 20.7763 45.1687C21.2448 45.6584 21.7133 45.8897 22.2796 46.1693C22.3429 46.2005 22.4073 46.2323 22.4732 46.2652C22.6582 46.3576 22.8479 46.4406 23.0411 46.5145C23.6052 46.7302 24.3758 47.025 25.7105 47.025H39.1315C40.7105 46.8187 41.4999 46.6125 42.092 46.4062C42.8815 46.2 43.4736 45.7875 44.0657 45.1687C44.5342 44.6791 44.7556 44.1895 45.0232 43.5977C45.0937 43.4417 45.1676 43.2784 45.2499 43.1062C45.2805 43.0105 45.3157 42.9099 45.3535 42.802C45.56 42.2125 45.842 41.4072 45.842 40.0125V25.9875C45.6447 24.3375 45.4473 23.5125 45.2499 22.8937C45.0526 22.0687 44.6578 21.45 44.0657 20.8312C43.5972 20.3416 43.1287 20.1103 42.5624 19.8307C42.4992 19.7995 42.4347 19.7677 42.3688 19.7348C42.1838 19.6424 41.9941 19.5594 41.8009 19.4855C41.2368 19.2697 40.4662 18.975 39.1315 18.975ZM32.421 24.1312C27.6841 24.1312 23.9341 28.05 23.9341 33C23.9341 37.95 27.6841 41.8687 32.421 41.8687C37.1578 41.8687 40.9078 37.95 40.9078 33C40.9078 28.05 37.1578 24.1312 32.421 24.1312ZM43.0789 23.925C43.0789 25.0641 42.1952 25.9875 41.1052 25.9875C40.0152 25.9875 39.1315 25.0641 39.1315 23.925C39.1315 22.7859 40.0152 21.8625 41.1052 21.8625C42.1952 21.8625 43.0789 22.7859 43.0789 23.925Z" fill="#3F4F4F"/>
<path fill-rule="evenodd" clip-rule="evenodd" d="M0.842041 10C0.842041 4.47715 5.31919 0 10.842 0H53.9999C59.5228 0 63.9999 4.47715 63.9999 10V56C63.9999 61.5229 59.5228 66 53.9999 66H10.842C5.31918 66 0.842041 61.5228 0.842041 56V10ZM25.7105 15.8812H39.1315C40.9078 16.0875 42.092 16.2937 43.0789 16.7062C44.2631 17.325 45.0526 17.7375 46.0394 18.7687C47.0263 19.8 47.6184 20.8312 48.0131 21.8625C48.4078 22.8937 48.8026 24.1312 48.8026 25.9875V40.0125C48.6052 41.8687 48.4078 43.1062 48.0131 44.1375C47.421 45.375 47.0263 46.2 46.0394 47.2312C45.0526 48.2625 44.0657 48.8812 43.0789 49.2937C42.092 49.7062 40.9078 50.1187 39.1315 50.1187H25.7105C23.9341 49.9125 22.7499 49.7062 21.7631 49.2937C20.5789 48.675 19.7894 48.2625 18.8026 47.2312C17.8157 46.2 17.2236 45.1687 16.8289 44.1375C16.4341 43.1062 16.0394 41.8687 16.0394 40.0125V25.9875C16.2368 24.1312 16.4341 22.8937 16.8289 21.8625C17.421 20.625 17.8157 19.8 18.8026 18.7687C19.7894 17.7375 20.7763 17.1187 21.7631 16.7062C22.7499 16.2937 23.9341 15.8812 25.7105 15.8812Z" fill="#3F4F4F"/>
</svg>
