<svg width="64" height="66" viewBox="0 0 64 66" fill="none" xmlns="http://www.w3.org/2000/svg">
<path fill-rule="evenodd" clip-rule="evenodd" d="M0.440186 10C0.440186 4.47715 4.91734 0 10.4402 0H53.5981C59.1209 0 63.5981 4.47715 63.5981 10V56C63.5981 61.5229 59.1209 66 53.5981 66H10.4402C4.91733 66 0.440186 61.5228 0.440186 56V10ZM19.9797 27.4313C18.1266 27.4313 16.6244 28.9335 16.6244 30.7865V46.1447C16.6244 47.9978 18.1266 49.5 19.9797 49.5C21.8327 49.5 23.3349 47.9978 23.3349 46.1447V30.7865C23.3349 28.9335 21.8327 27.4313 19.9797 27.4313ZM16.2297 20.4188C16.2297 22.6875 17.8086 24.3375 19.9797 24.3375C22.1507 24.3375 23.7297 22.6875 23.7297 20.4188C23.7297 18.15 22.1507 16.5 19.9797 16.5C18.006 16.5 16.2297 18.15 16.2297 20.4188ZM41.0981 46.3421C41.0981 48.0862 42.5119 49.5 44.256 49.5C46 49.5 47.4139 48.0862 47.4139 46.3421V35.8875C47.4139 29.0812 43.4665 26.8125 39.7165 26.8125C37.7529 26.8125 36.1272 27.5896 34.9978 28.5236C34.5675 28.8794 33.4007 28.499 33.4007 27.9406C33.4007 27.6593 33.1727 27.4313 32.8913 27.4313H30.2428C28.4988 27.4313 27.0849 28.8451 27.0849 30.5891V46.1447C27.0849 47.9978 28.5871 49.5 30.4402 49.5C32.2932 49.5 33.7954 47.9978 33.7954 46.1447V37.7438C33.7954 34.65 35.7691 33 37.7428 33C39.7165 33 41.0981 34.0312 41.0981 37.5375V46.3421Z" fill="#3F4F4F"/>
</svg>
